#!OML:ASF F:\VICON\USERDATA\INSTALL\rory3\rory3.ASF
:FULLY-SPECIFIED
:DEGREES
828
root -11.16 17.7485 14.3764 -2.4237 1.53571 4.18048
lowerback 12.2427 2.76412 -0.0415872
upperback 1.49797 3.67779 0.301288
thorax -5.30481 1.81291 -0.271056
lowerneck -19.1133 4.87846 -7.32747
upperneck 43.0503 9.71396 3.48817
head 19.1555 3.17999 5.0587
rclavicle -1.91827e-014 -4.77083e-015
rhumerus -35.8712 -12.4933 -72.3013
rradius 34.1476
rwrist 3.78546
rhand -9.24568 8.77547
rfingers 7.12502
rthumb 16.7099 -20.5253
lclavicle -1.91827e-014 -4.77083e-015
lhumerus -38.9666 19.4886 73.9255
lradius 32.3539
lwrist -3.87283
lhand -22.2247 20.8801
lfingers 7.12502
lthumb 4.19178 50.8186
rfemur -5.08535 -1.30477 8.18293
rtibia 29.5777
rfoot -14.4879 -10.4745
rtoes -15.2268
lfemur -0.864809 -8.75532 -6.12467
ltibia 16.4246
lfoot 2.6644 2.7022
ltoes -17.6003
829
root -11.0685 17.7297 14.379 -2.41669 1.70103 4.0309
lowerback 12.2428 2.79888 0.064925
upperback 1.35802 3.74067 0.324648
thorax -5.44701 1.84086 -0.321267
lowerneck -18.9365 4.83502 -7.14878
upperneck 43.0593 9.53616 3.53158
head 19.1349 3.15149 5.00678
rclavicle 3.96575e-014 0
rhumerus -36.1515 -12.9633 -71.8423
rradius 34.0072
rwrist 3.79524
rhand -8.96007 8.53693
rfingers 7.12502
rthumb 16.9849 -20.7405
lclavicle 3.96575e-014 0
lhumerus -39.0399 19.1981 74.0291
lradius 32.4887
lwrist -3.76684
lhand -22.4859 22.4328
lfingers 7.12502
lthumb 3.93952 52.3761
rfemur -5.11176 -1.39697 8.00287
rtibia 29.741
rfoot -14.5086 -10.5176
rtoes -15.2391
lfemur -0.443415 -9.04731 -6.12719
ltibia 15.854
lfoot 3.61614 2.39973
ltoes -16.3638
830
root -10.9728 17.714 14.3813 -2.4053 1.89118 3.9833
lowerback 12.2685 2.79043 0.0793225
upperback 1.2182 3.73311 0.331513
thorax -5.60826 1.83571 -0.326847
lowerneck -18.7518 4.80172 -7.15947
upperneck 42.994 9.38574 3.69691
head 19.0359 3.12732 5.0413
rclavicle 5.35725e-014 -1.19271e-014
rhumerus -36.4696 -13.1665 -71.4909
rradius 33.8976
rwrist 3.50685
rhand -9.02445 8.83008
rfingers 7.12502
rthumb 16.9229 -20.4526
lclavicle 5.35725e-014 -1.19271e-014
lhumerus -39.1528 18.926 74.1254
lradius 32.647
lwrist -3.59094
lhand -22.8108 23.4865
lfingers 7.12502
lthumb 3.62579 53.4354
rfemur -5.16395 -1.46691 7.69543
rtibia 29.9125
rfoot -14.5018 -10.5584
rtoes -15.6797
lfemur -0.00595364 -9.38611 -6.31514
ltibia 15.3244
lfoot 4.10268 2.21688
ltoes -17.8053
831
root -10.8725 17.6994 14.3867 -2.40306 2.06963 3.99174
lowerback 12.1355 2.75786 0.074206
upperback 1.23517 3.68853 0.321107
thorax -5.51618 1.81476 -0.319845
lowerneck -18.7992 4.77927 -7.16246
upperneck 42.8717 9.32656 3.73285
head 18.9728 3.1166 5.03997
rclavicle -2.26615e-014 -3.18055e-015
rhumerus -36.508 -13.4814 -71.1796
rradius 33.7901
rwrist 3.56244
rhand -9.00104 8.65016
rfingers 7.12502
rthumb 16.9454 -20.6306
lclavicle -2.26615e-014 -3.18055e-015
lhumerus -39.0765 18.7616 74.2591
lradius 32.792
lwrist -3.35005
lhand -22.9583 23.4781
lfingers 7.12502
lthumb 3.48333 53.4294
rfemur -5.15201 -1.39996 7.30874
rtibia 30.0846
rfoot -14.6503 -10.5696
rtoes -15.7102
lfemur 0.46019 -9.62417 -6.6224
ltibia 14.879
lfoot 3.47757 2.41505
ltoes -22.5229
832
root -10.7706 17.6759 14.3895 -2.45207 2.18396 3.8406
lowerback 12.0622 2.7617 0.201889
upperback 1.2475 3.71325 0.368299
thorax -5.45747 1.82514 -0.341805
lowerneck -18.9151 4.75427 -7.14773
upperneck 42.8601 9.24888 3.83141
head 18.995 3.10149 5.07665
rclavicle 5.93869e-014 3.97569e-015
rhumerus -36.583 -13.928 -70.7716
rradius 33.7703
rwrist 3.78056
rhand -8.69083 7.98577
rfingers 7.12502
rthumb 17.244 -21.2691
lclavicle 5.93869e-014 3.97569e-015
lhumerus -38.9357 18.8227 74.3301
lradius 32.7364
lwrist -3.51303
lhand -22.8487 23.4196
lfingers 7.12502
lthumb 3.5892 53.3691
rfemur -5.07822 -1.22097 7.14056
rtibia 30.2467
rfoot -14.6918 -10.8706
rtoes -16.4288
lfemur 0.951738 -9.70548 -6.75271
ltibia 14.4429
lfoot 2.37143 2.63085
ltoes -25.5162
